Inverse Dynamics Generalized Forces
version=1
nRows=10
nColumns=44
inDegrees=no
endheader
time	pelvis_tilt_moment	pelvis_list_moment	pelvis_rotation_moment	pelvis_tx_force	pelvis_ty_force	pelvis_tz_force	hip_flexion_r_moment	hip_adduction_r_moment	hip_rotation_r_moment	hip_flexion_l_moment	hip_adduction_l_moment	hip_rotation_l_moment	lumbar_extension_moment	lumbar_bending_moment	lumbar_rotation_moment	knee_angle_r_moment	knee_frontal_r_moment	knee_angle_r_beta_force	knee_angle_l_moment	knee_frontal_l_moment	knee_angle_l_beta_force	arm_flex_r_moment	arm_add_r_moment	arm_rot_r_moment	arm_flex_l_moment	arm_add_l_moment	arm_rot_l_moment	knee_adduction_r_moment	knee_adduction_l_moment	elbow_flex_r_moment	elbow_flex_l_moment	ankle_angle_r_moment	ankle_angle_l_moment	pro_sup_r_moment	pro_sup_l_moment	wrist_flex_r_moment	wrist_dev_r_moment	wrist_flex_l_moment	wrist_dev_l_moment	subtalar_angle_r_moment	subtalar_angle_l_moment	mtp_angle_r_moment	mtp_angle_l_moment
    2.00000000000000	   -5.86479517137110	    5.65121288260291	    3.40530644211929	   18.93003071530280	  -15.16117610698598	   -1.48237433187468	    4.44718715830426	   -2.59876029796607	    0.08418432481245	  -13.61895662905556	  -49.52315663424260	    4.22630522361140	    8.92998110798231	    0.47247027003130	    6.49341088749314	   -1.60234214769652	   -0.16447891953957	   -0.00238584202176	    4.67384523593402	  -21.08597403833211	   -0.03827428528695	    0.88088316667540	   -3.33617211686909	   -0.61205081208013	   -2.37133704839241	   -2.12742933855617	   -0.21675478808943	   -0.25395783764452	  -22.23163199322573	    1.39580447788627	    0.82530009223321	    0.73715560729503	  -68.68758987265277	   -0.05546775125635	   -0.02289932345329	   -0.04204506029873	   -0.19759701133896	    0.02740329630328	   -0.11010311764660	   -0.18506177211879	   20.79000543069664	   -0.02903938929555	   -0.03611581170199
    2.00500000000000	   -6.34755033818386	    3.29884942303680	    2.78094381013062	   18.98719997093497	  -16.93049438882998	   -1.08147576377157	    4.47666898091049	   -3.49652043325121	    0.43318062939701	  -13.05832616439133	  -48.88169151692635	    3.92543135423380	    8.25629643887307	   -0.40480171412012	    6.22944604725093	   -1.47048727390290	   -0.54922700585988	   -0.00202191445206	    5.46627042634869	  -20.83133456066611	   -0.03813773756412	    1.03708717474922	   -3.30734850238627	   -0.61230062650217	   -2.36429604928825	   -2.09309550344121	   -0.19404305373328	   -0.62424186459688	  -21.97186461255477	    1.42873036319371	    0.81957445667542	    0.75343900329027	  -69.20864590419052	   -0.05662078309379	   -0.02130003158061	   -0.04370979756435	   -0.20220022886359	    0.03206908822868	   -0.10757078706879	   -0.21858451784975	   20.38155759170606	   -0.02557833150184	   -0.03619950413372
    2.01000000000000	   -6.62120015966730	    0.87805351390655	    2.12571053076982	   18.90241490696858	  -19.03543336447376	   -0.62159583593875	    4.59265657695604	   -4.43028699067771	    0.78901229564510	  -12.49159042492241	  -48.29666546894539	    3.63632039296121	    7.66283225539709	   -1.24486269002001	    5.94655066289593	   -1.39080648321811	   -0.94686835855090	   -0.00172699735779	    6.18801119961701	  -20.61841093975520	   -0.03801470849438	    1.18587159919530	   -3.27595847846508	   -0.61118056606694	   -2.35324972696986	   -2.05187460313858	   -0.17030624059326	   -1.01159910581907	  -21.75569588121297	    1.46168780900559	    0.81510455484577	    0.78381111815379	  -69.71874873644370	   -0.05766665038808	   -0.01974791100016	   -0.04505561111155	   -0.20673040151433	    0.03681034193093	   -0.10503565397001	   -0.25430361251078	   19.97641504446933	   -0.02344874271887	   -0.03620791588029
    2.01500000000000	   -6.68837762489082	   -1.58199388250966	    1.44706932389130	   18.69692355499770	  -21.34543215598592	   -0.12323372961003	    4.79010286497629	   -5.37880849218884	    1.14165674964957	  -11.91249737017134	  -47.75736410772562	    3.35751350026588	    7.15039471120499	   -2.03915741657186	    5.65286636851544	   -1.34986386876500	   -1.34814729018507	   -0.00151192523724	    6.84762874543285	  -20.43912452223484	   -0.03790775555546	    1.32674165337334	   -3.24220708937182	   -0.60867702167810	   -2.33907950973962	   -2.00498792588498	   -0.14585460730237	   -1.40560894835041	  -21.57509443954543	    1.49437791799688	    0.81164893855266	    0.82782370316738	  -70.22647100312072	   -0.05859454740668	   -0.01825705513087	   -0.04607092563392	   -0.21115468390428	    0.04156006358796	   -0.10248614731374	   -0.29184700809762	   19.57937935398182	   -0.02262473893833	   -0.03613273988987
    2.02000000000000	   -6.56194773223669	   -4.04639601547096	    0.75292675452168	   18.38710580535369	  -23.72112392287845	    0.38792520696446	    5.06011408246267	   -6.31880988956924	    1.48054234422884	  -11.31711210846760	  -47.25495326108707	    3.08812792966770	    6.71731799167268	   -2.77945448677175	    5.35621971961227	   -1.33223221985054	   -1.74282373667374	   -0.00138657686902	    7.45534116914446	  -20.28649681678630	   -0.03781880617743	    1.45937416966826	   -3.20650377686495	   -0.60483875373701	   -2.32265889206601	   -1.95383338474604	   -0.12104145271291	   -1.79474508406557	  -21.42321164044464	    1.52650046183301	    0.80894082794995	    0.88465019812313	  -70.74053259475676	   -0.05939768358292	   -0.01684152952146	   -0.04675821205476	   -0.21544058075660	    0.04624576062042	   -0.09990994891252	   -0.33071083396074	   19.19484050075834	   -0.02306201173270	   -0.03597049778088
    2.02500000000000	   -6.26431103206485	   -6.47546430517605	    0.05164013659604	   17.98307831980439	  -26.01994745509735	    0.88171159463960	    5.38984188930821	   -7.22526640458727	    1.79485302464424	  -10.70369011109307	  -46.78258588089438	    2.82776178489560	    6.35979744096298	   -3.45802421215232	    5.06391607025644	   -1.32114418748916	   -2.11983422667342	   -0.00135969885608	    8.02251374399497	  -20.15477940034212	   -0.03774913472708	    1.58359874704204	   -3.16945048715877	   -0.59977298925080	   -2.30481852081036	   -1.89992272298233	   -0.09625059861917	   -2.16661260808521	  -21.29449547773591	    1.55775925965651	    0.80670199267643	    0.95317607823507	  -71.26948222979442	   -0.06007339009313	   -0.01551497611134	   -0.04713364761776	   -0.21955677014786	    0.05079210547835	   -0.09729484873519	   -0.37028798494308	   18.82660553114322	   -0.02469992264756	   -0.03572269248106
    2.03000000000000	   -5.82648208748316	   -8.82607405324185	   -0.64798948780208	   17.48757961756758	  -28.10177684617274	    1.32458057398407	    5.76247185815228	   -8.07175688864154	    2.07388801588854	  -10.07248610600877	  -46.33521283623895	    2.57635042893416	    6.07227308658704	   -4.06782346768570	    4.78255612757820	   -1.29915052443578	   -2.46749429415885	   -0.00143894378072	    8.56107506295200	  -20.03944085946929	   -0.03769935604614	    1.69937557298340	   -3.13181525385181	   -0.59363829682835	   -2.28631430451504	   -1.84481585975052	   -0.07188235806333	   -2.50822499989016	  -21.18465486132899	    1.58786773017862	    0.80465696323533	    1.03208200699812	  -71.82127664878423	   -0.06062301219615	   -0.01429021770000	   -0.04722600502057	   -0.22347384289827	    0.05512379096200	   -0.09462962990609	   -0.40990040586240	   18.47773146701080	   -0.02746326930082	   -0.03539583503018
    2.03500000000000	   -5.28696627691624	  -11.05331139381194	   -1.33673343825537	   16.89523844838321	  -29.83427014363004	    1.68103882444918	    6.15733016040147	   -8.83092229318355	    2.30747044687742	   -9.42550499523221	  -45.90920242033864	    2.33398404457294	    5.84783677585221	   -4.60267536290830	    4.51788223300806	   -1.24877221096884	   -2.77374680954070	   -0.00163107404438	    9.08288928713244	  -19.93705718692346	   -0.03766943514666	    1.80677199416511	   -3.09449363703131	   -0.58663488074510	   -2.26780011912105	   -1.79005590841490	   -0.04833874344805	   -2.80632395380624	  -21.09052041685586	    1.61655456493620	    0.80254669927899	    1.11990684827607	  -72.40277979048730	   -0.06105160572499	   -0.01317888296673	   -0.04707486554136	   -0.22716494849016	    0.05916841165893	   -0.09190491249057	   -0.44882966443597	   18.15035992678468	   -0.03126365816743	   -0.03500133717198
    2.04000000000000	   -4.69043640644982	  -13.11227174102772	   -2.00496299981201	   16.19234923537547	  -31.09768884752323	    1.91528967012465	    6.55013437320332	   -9.47505916451584	    2.48639444831341	   -8.76619209570284	  -45.50188536941160	    2.10070026331398	    5.67863848163011	   -5.05743211286145	    4.27466008514096	   -1.15313256226677	   -3.02646253133578	   -0.00194224276781	    9.59911808709172	  -19.84515578197635	   -0.03765871246955	    1.90593974681175	   -3.05846117058229	   -0.57899304594453	   -2.24980641671971	   -1.73710825950999	   -0.02600870560797	   -3.04774739364141	  -21.00985267302878	    1.64356943485220	    0.80014089610514	    1.21508296876463	  -73.01922542004242	   -0.06136746690263	   -0.01219107085007	   -0.04672829010379	   -0.23060634356148	    0.06285920695450	   -0.08911389004730	   -0.48634218983004	   17.84555777688961	   -0.03600046906494	   -0.03455526350623
    2.04500000000000	   -4.08620182214652	  -14.95988488814707	   -2.64270194385492	   15.35727387186834	  -31.78904173617014	    1.99298990611338	    6.91341263489023	   -9.97687560812872	    2.60289490365139	   -8.09906013714467	  -45.11113828768498	    1.87627196583990	    5.55627112338767	   -5.42811096908564	    4.05660003423145	   -0.99655269635750	   -3.21379871350785	   -0.00237822821768	   10.11961149682856	  -19.76205923305438	   -0.03766594388926	    1.99709445991340	   -3.02472045686397	   -0.57096063677258	   -2.23272571642079	   -1.68730676956825	   -0.00525418099069	   -3.21985092126570	  -20.94114608143179	    1.66868861117391	    0.79724821692121	    1.31594194826724	  -73.67370897889387	   -0.06158153276384	   -0.01133507034795	   -0.04624010956559	   -0.23377784402420	    0.06613751323754	   -0.08625290247043	   -0.52170754675619	   17.56317913298631	   -0.04156144585442	   -0.03407793962505
